<?xml version="1.0" encoding="iso-8859-1"?>
<!-- Uploaded to: SVG Repo, www.svgrepo.com, Generator: SVG Repo Mixer Tools -->
<!DOCTYPE svg PUBLIC "-//W3C//DTD SVG 1.1//EN" "http://www.w3.org/Graphics/SVG/1.1/DTD/svg11.dtd">
<svg fill="#000000" version="1.1" id="Capa_1" xmlns="http://www.w3.org/2000/svg" xmlns:xlink="http://www.w3.org/1999/xlink" 
	 width="800px" height="800px" viewBox="0 0 457.191 457.191"
	 xml:space="preserve">
<g>
	<path d="M83.242,302.584v38.354h-5.379c-6.903,0-12.5,5.598-12.5,12.5v91.254c0,6.904,5.597,12.5,12.5,12.5h301.465
		c6.902,0,12.5-5.596,12.5-12.5v-91.254c0-6.902-5.598-12.5-12.5-12.5h-5.379v-38.354c0-6.904-5.598-12.5-12.5-12.5h-12.531h-25.85
		V98.716c0-3.206-1.23-6.29-3.441-8.613L237.654,3.887C235.295,1.406,232.02,0,228.595,0c-3.425,0-6.699,1.405-9.059,3.887
		l-81.975,86.216c-2.209,2.324-3.441,5.407-3.441,8.613v191.368h-10.314H95.743C88.839,290.084,83.242,295.68,83.242,302.584z
		 M366.828,432.191H90.364v-66.254h0.139h5.24h265.706h3.908h1.473v66.254H366.828z M159.121,103.71l69.475-73.069l69.474,73.069
		v186.374H159.125L159.121,103.71z M123.806,315.084h22.827h163.925h38.359h0.031v25.854H108.242v-25.854H123.806z"/>
</g>
</svg>